<?xml version="1.0" encoding="UTF-8"?>
<svg xmlns="http://www.w3.org/2000/svg" viewBox="0 0 448.6 448.54">
  <defs>
    <style>.cls-1{fill:#fff;}</style>
  </defs>
  <g id="Capa_2" data-name="Capa 2">
    <g id="Capa_1-2" data-name="Capa 1">
      <path class="cls-1" d="M271.72,199.55c13.94,0,27.9.5,41.82-.1,36.47-1.57,57.57-34.95,41.87-66-8-15.73-21.24-24.36-38.79-24.48-52.94-.37-105.88-.49-158.82,0a45.68,45.68,0,0,0-45.27,45.26q-.86,77.34,0,154.68c.3,24.94,20.47,43.32,45.14,43.28,25.32,0,44.53-18.81,45.18-44.55.33-13.12,0-26.26,0-37.85L381,448.36c.93.71-2.77-1-5.72-1q-154.47.17-308.95,0C25.66,447.31,0,421.07,0,380.46Q0,222.69,0,64.92C0,25.69,25.84,0,65.35,0Q179.5,0,293.65,0c86.16,0,152.26,63.65,154.89,149.14,1.68,54.74-33.61,111.85-83.39,134.79-3.92,1.81-7.81,5.26-12.34.74q-41.1-41-82.29-81.94Z"></path>
    </g>
  </g>
</svg>
